<svg id="Capa_1" enable-background="new 0 0 512 512" height="512" viewBox="0 0 512 512" width="512" xmlns="http://www.w3.org/2000/svg"><g><path d="m256 0c-141.385 0-256 114.615-256 256 0 100.256 57.64 187.037 141.582 229.05l101.442-30.574 101.507 41.796c97.754-36.031 167.469-130.008 167.469-240.272 0-141.385-114.615-256-256-256z" fill="#96ebe6"/><path d="m335.832 92.82-51.02-51.02-12.369 69.612-43.021-43.022-13.257 65.702-40.444-40.444-17.485 125.94 104.136 242.854 82.159 33.83c97.754-36.031 167.469-130.008 167.469-240.272 0-3.297-.083-6.575-.206-9.842l-173.291-173.291z" fill="#00c8c8"/><g><g fill="#ffbda9"><circle cx="321.172" cy="330.174" r="67.15"/><path d="m339.398 333.903 46.761 12.516 34.611-130.524c3.437-12.842-4.187-26.038-17.028-29.475l-.258-.069c-12.842-3.437-26.038 4.187-29.475 17.028z"/></g></g><path d="m244.931 511.747 25.234-155.932-27.109-140.713h-8.02v-133.126c0-10.63-8.618-19.247-19.247-19.247h-.214c-10.63 0-19.247 8.617-19.247 19.247v133.126h-16.04v-109.011c0-10.63-8.617-19.247-19.247-19.247h-.214c-10.63 0-19.247 8.617-19.247 19.247v378.959c31.331 15.681 66.32 25.121 103.351 26.697z" fill="#ffccbd"/><path d="m325.177 67.542c-10.689 0-19.353 8.665-19.353 19.354v128.207h-16.04v-160.395c0-10.63-8.617-19.247-19.247-19.247h-.213c-10.63 0-19.247 8.617-19.247 19.247v160.394h-8.02v296.573c4.287.214 8.602.325 12.943.325 31.12 0 60.941-5.559 88.531-15.728v-409.377c0-10.689-8.665-19.353-19.354-19.353z" fill="#ffbda9"/><path d="m292.422 258.092h-.128c-6.386 0-11.563 5.177-11.563 11.563v65.488h-9.636v-79.975c0-6.386-5.177-11.563-11.563-11.563h-.128c-6.386 0-11.563 5.177-11.563 11.563v79.975h-4.818l-16.286 84.533 14.874 91.914c4.764.264 9.558.41 14.388.41 16.403 0 32.439-1.562 47.984-4.51v-237.835c.001-6.386-5.175-11.563-11.561-11.563z" fill="#ffccbd"/><path d="m238.206 238.786c0-6.386-5.177-11.563-11.563-11.563h-.128c-6.386 0-11.563 5.177-11.563 11.563v96.356h-9.636v-77.02c0-6.421-5.205-11.627-11.626-11.627s-11.627 5.205-11.627 11.627v243.02c19.448 5.858 39.865 9.479 60.961 10.532v-176.531h-4.818z" fill="#ffddce"/><g><g fill="#ffddce"><circle cx="196.095" cy="404.272" r="40.34"/><path d="m185.146 406.512-28.092 7.519-20.793-78.412c-2.065-7.715 2.515-15.642 10.23-17.707l.155-.041c7.715-2.065 15.642 2.515 17.707 10.23z"/></g></g></g></svg>