<svg height="512pt" viewBox="0 0 512 512" width="512pt" xmlns="http://www.w3.org/2000/svg"><path d="m512 256c0 141.386719-114.613281 256-256 256s-256-114.613281-256-256 114.613281-256 256-256 256 114.613281 256 256zm0 0" fill="#0095ff"/><path d="m113.210938 327.210938 181.832031 181.828124c110.722656-16.941406 198.078125-104.828124 214.253906-215.804687l-89.785156-89.789063zm0 0" fill="#0050c3"/><path d="m387.808594 291.292969-14.847656-14.84375.074218-.066407c-30.691406-30.6875-98.414062-98.414062-98.414062-98.414062l-65.472656-2.445312-45.011719-43.066407-74.058594 74.054688 28.59375 28.59375 19.292969 55.546875 63.929687 63.929687c.691407 4.617188 2.777344 9.054688 6.3125 12.589844l29.796875 29.796875c8.785156 8.785156 23.160156 8.785156 31.945313 0 7.792969-7.792969 8.65625-19.972656 2.625-28.757812l.292969-.269532 4.582031 4.585938c8.785156 8.785156 23.164062 8.785156 31.945312 0 8.519531-8.515625 8.753907-22.273438.753907-31.113282l13.769531 13.769532c8.785156 8.785156 23.160156 8.785156 31.945312 0 8.785157-8.785156 8.785157-23.15625 0-31.941406 8.785157 8.78125 23.160157 8.78125 31.945313-.003907 8.785156-8.785156 8.785156-23.160156 0-31.945312zm0 0" fill="#a44f3e"/><path d="m372.960938 276.449219.074218-.066407c-30.691406-30.691406-98.414062-98.414062-98.414062-98.414062l-32.382813-1.210938v223.503907c8.6875 5.273437 20.222657 4.191406 27.710938-3.292969 7.792969-7.792969 8.65625-19.972656 2.625-28.757812l.292969-.269532 4.582031 4.585938c8.785156 8.785156 23.164062 8.785156 31.945312 0 8.519531-8.515625 8.753907-22.273438.753907-31.113282l13.769531 13.769532c8.785156 8.785156 23.160156 8.785156 31.945312 0 8.785157-8.785156 8.785157-23.15625 0-31.941406 8.785157 8.78125 23.160157 8.78125 31.945313-.003907 8.785156-8.785156 8.785156-23.160156 0-31.945312zm0 0" fill="#883f2e"/><path d="m342.835938 126.824219-27.40625 27.40625s-33.035157 0-59.464844 0c-26.433594 0-46 22.109375-46 22.109375l-27.679688 27.679687 32.152344 29.347657 28.308594-28.308594h58.960937l72.175781 72.171875 15.757813-41.675781 31.003906-31.003907zm0 0" fill="#fed2a4"/><path d="m174.953125 297.410156c8.785156-8.78125 8.785156-23.15625 0-31.941406s-23.160156-8.785156-31.945313 0l-29.796874 29.796875c-8.785157 8.785156-8.785157 23.160156 0 31.945313 8.785156 8.78125 23.160156 8.78125 31.945312 0zm0 0" fill="#ff92f8"/><path d="m207.535156 298.046875c-8.785156-8.785156-23.164062-8.785156-31.945312 0l-29.800782 29.796875c-8.78125 8.785156-8.78125 23.160156 0 31.945312 8.785157 8.785157 23.164063 8.785157 31.945313 0l29.800781-29.796874c8.78125-8.785157 8.78125-23.160157 0-31.945313zm0 0" fill="#ff92f8"/><path d="m192.847656 345.105469c-8.785156 8.785156-8.785156 23.160156 0 31.945312 8.785156 8.785157 23.160156 8.785157 31.945313 0 8.785156-8.785156 8.785156-23.160156 0-31.945312-8.785157-8.785157-23.160157-8.785157-31.945313 0zm0 0" fill="#ff92f8"/><g fill="#fed2a4"><path d="m174.953125 297.410156c8.785156-8.78125 8.785156-23.15625 0-31.941406s-23.160156-8.785156-31.945313 0l-29.796874 29.796875c-8.785157 8.785156-8.785157 23.160156 0 31.945313 8.785156 8.78125 23.160156 8.78125 31.945312 0zm0 0"/><path d="m207.535156 298.046875c-8.785156-8.785156-23.164062-8.785156-31.945312 0l-29.800782 29.796875c-8.78125 8.785156-8.78125 23.160156 0 31.945312 8.785157 8.785157 23.164063 8.785157 31.945313 0l29.800781-29.796874c8.78125-8.785157 8.78125-23.160157 0-31.945313zm0 0"/><path d="m192.847656 345.105469c-8.785156 8.785156-8.785156 23.160156 0 31.945312 8.785156 8.785157 23.160156 8.785157 31.945313 0 8.785156-8.785156 8.785156-23.160156 0-31.945312-8.785157-8.785157-23.160157-8.785157-31.945313 0zm0 0"/></g><path d="m315.429688 154.230469s-27.0625 0-51.796876 0v50.828125h38.074219l72.175781 72.171875 15.757813-41.675781 31.003906-31.003907-77.808593-77.726562zm0 0" fill="#ffbd86"/></svg>