<svg id="Capa_1" enable-background="new 0 0 512 512" height="512" viewBox="0 0 512 512" width="512" xmlns="http://www.w3.org/2000/svg"><g><path d="m23.716 336.311c-10.463-9.186-17.374-21.734-19.798-35.446-2.575-14.567-3.918-29.559-3.918-44.865 0-141.385 114.615-256 256-256s256 114.615 256 256c0 42.726-10.467 83.007-28.977 118.42-4.897 9.368-12.704 16.933-22.223 21.53-52.49 25.353-111.369 39.564-173.567 39.564-100.961 0-193.176-37.444-263.517-99.203z" fill="#84b017"/><path d="m123.038 387.918c.019.644.029 1.285.03 1.925.04 36.61-76.46 13.592-79.778 8.649-19.473-29.011-33.168-62.225-39.437-97.995 4.227-2.001 8.953-3.121 13.941-3.121 16.361 0 29.909 12.044 32.261 27.75 3.084-.366 6.233-.516 9.433-.437 34.417.859 62.523 28.818 63.55 63.229z" fill="#2cb3cd"/><path d="m70.576 230.832c0 11.133-9.025 20.158-20.158 20.158s-20.158-9.025-20.158-20.158 9.025-20.158 20.158-20.158 20.158 9.025 20.158 20.158zm64.451 14.256c-36.035 0-65.247 29.212-65.247 65.247s29.212 65.247 65.247 65.247 65.247-29.212 65.247-65.247-29.212-65.247-65.247-65.247zm10.433 137.033c9.446-3.128 19.545-4.82 30.04-4.82 19.787 0 38.168 6.018 53.414 16.323 13.912-17.987 34.102-30.873 57.286-35.372-1.862-6.235-2.863-12.842-2.863-19.683 0-38.294 31.349-69.267 69.783-68.654 36.558.583 66.551 30.246 67.517 66.796.232 8.788-1.187 17.214-3.971 24.993 7.271-2.621 15.111-4.049 23.285-4.049 16.578 0 31.783 5.875 43.648 15.656-11.431 22.133-25.996 42.385-43.108 60.169-32.888 34.179-151.459 54.341-230.49 57.096-32.89 1.147-110.756-93.153-64.541-108.455z" fill="#7cd2e3"/><path d="m440.491 433.48c-46.575 48.402-112.016 78.52-184.491 78.52-42.076 0-81.782-10.151-116.801-28.138-27.573-14.162-20.483-55.356 10.184-59.874 16.158-2.381 33.141-.644 49.392 5.875 18.364 7.367 33.183 19.797 43.496 35.037 19.609-11.514 43.145-15.955 66.337-11.499.56-6.112 1.953-12.244 4.247-18.248 13.355-34.962 52.909-52.93 87.998-39.908 18.769 6.966 32.612 21.186 39.638 38.235zm-31.591-170.316c-13.817 0-25.018 11.201-25.018 25.018s11.201 25.018 25.018 25.018 25.018-11.201 25.018-25.018-11.201-25.018-25.018-25.018z" fill="#a6e0ec"/><path d="m512 310.335c0 13.817-11.201 25.018-25.018 25.018s-25.018-11.201-25.018-25.018 11.201-25.018 25.018-25.018 25.018 11.201 25.018 25.018zm-33.978-84.448c8.868 0 16.057-7.189 16.057-16.057s-7.189-16.057-16.057-16.057-16.057 7.189-16.057 16.057 7.189 16.057 16.057 16.057z" fill="#c2eaf2"/><path d="m473.445 198.349c0-1.402.18-2.763.518-4.059 1.297-.338 2.657-.518 4.059-.518 8.868 0 16.057 7.189 16.057 16.057 0 1.402-.18 2.763-.518 4.059-1.297.338-2.657.518-4.059.518-8.868.001-16.057-7.189-16.057-16.057zm13.537 86.968c-3.946 0-7.678.914-10.997 2.541-1.627 3.319-2.541 7.051-2.541 10.997 0 13.817 11.201 25.018 25.018 25.018 3.946 0 7.678-.914 10.997-2.541 1.627-3.319 2.541-7.051 2.541-10.997 0-13.817-11.201-25.018-25.018-25.018z" fill="#def4f8"/><path d="m446.102 248.823-106.91 106.91c-17.713 17.713-41.002 28.762-65.926 31.278-24.924 2.515-48.213 13.565-65.926 31.278l-66.44 66.439c-39.491-19.912-73.121-49.75-97.611-86.237l82.509-82.509c6.518-6.518 11.276-14.582 13.828-23.439 1.414-4.905 2.131-9.985 2.131-15.09v-97.6c0-5.523 2.231-10.526 5.841-14.155.498-.635 52.695-52.904 52.695-52.904 7.839-7.839 20.549-7.839 28.388 0 7.839 7.839 7.839 20.549 0 28.388l-43.87 43.869c-1.862 1.862-2.907 4.386-2.907 7.019 0 8.843 10.692 13.272 16.945 7.019l8.778-8.778c.497-.634 1.037-1.245 1.621-1.829l123.613-123.611c8.011-8.011 21.108-7.835 28.897.527 7.418 7.965 6.848 20.505-.848 28.202l-91.532 91.532 11.681 11.681 113.085-113.086c7.839-7.839 20.549-7.839 28.388 0 7.839 7.839 7.839 20.549 0 28.388l-113.085 113.085 11.681 11.681 91.872-91.872c7.839-7.839 20.549-7.839 28.388 0 7.839 7.839 7.839 20.549 0 28.388l-91.872 91.872 11.681 11.681 56.516-56.517c7.839-7.839 20.549-7.839 28.388 0 7.84 7.84 7.84 20.55.001 28.39z" fill="#ffbeaa"/><path d="m361.12 93.388-16.434 16.434c-7.839 7.839-20.549 7.839-28.388 0s-7.839-20.549 0-28.388l16.434-16.434c7.839-7.839 20.549-7.839 28.388 0s7.84 20.549 0 28.388zm61.412-9.661c-7.839-7.839-20.549-7.839-28.388 0l-16.434 16.434c-7.839 7.839-7.839 20.549 0 28.388 7.839 7.839 20.549 7.839 28.388 0l16.434-16.434c7.839-7.839 7.839-20.549 0-28.388zm18.671 61.355c-7.839-7.839-20.549-7.839-28.388 0l-16.434 16.434c-7.839 7.839-7.839 20.549 0 28.388s20.549 7.839 28.388 0l16.434-16.434c7.839-7.839 7.839-20.548 0-28.388zm5.584 74.668c-7.839-7.839-20.549-7.839-28.388 0l-16.434 16.434c-7.839 7.839-7.839 20.549 0 28.388s20.549 7.839 28.388 0l16.434-16.434c7.839-7.839 7.839-20.549 0-28.388z" fill="#ffcdbe"/><path d="m57.837 418.083c-5.149-6.288-10.006-12.826-14.547-19.592l82.509-82.509c6.518-6.518 11.276-14.582 13.828-23.439 1.414-4.905 2.131-9.985 2.131-15.09v-97.6c0-5.523 2.231-10.526 5.841-14.155.498-.635 52.695-52.904 52.695-52.904 7.839-7.839 20.549-7.839 28.388 0 1.264 1.264 2.323 2.654 3.18 4.13-1.961.952-3.8 2.242-5.428 3.87 0 0-52.198 52.269-52.695 52.904-3.61 3.63-5.841 8.632-5.841 14.155v97.6c0 5.105-.718 10.185-2.131 15.09-2.553 8.857-7.311 16.922-13.828 23.439zm151.947-95.611c2.929 2.929 7.677 2.929 10.607 0 30.217-30.217 30.217-79.384 0-109.602-2.929-2.929-7.677-2.929-10.607 0s-2.929 7.678 0 10.607c24.369 24.369 24.369 64.019 0 88.388-2.929 2.93-2.929 7.678 0 10.607z" fill="#faa68e"/><path d="m377.223 174.067c17.233 17.234 30.025 36.937 38.196 57.334 1.805 4.505 1.15 9.615-1.627 13.595-7.643 10.953-16.443 21.5-26.374 31.431-9.932 9.932-20.478 18.731-31.431 26.374-3.98 2.777-9.09 3.432-13.595 1.627-20.397-8.172-40.101-20.963-57.334-38.196s-30.025-36.937-38.196-57.334c-1.805-4.505-1.15-9.615 1.627-13.595 7.643-10.953 16.443-21.5 26.374-31.431s20.478-18.731 31.431-26.374c3.98-2.777 9.09-3.432 13.595-1.627 20.396 8.171 40.1 20.962 57.334 38.196z" fill="#fff79f"/><path d="m381.474 282.167c-8.162 7.615-16.694 14.498-25.488 20.634-3.98 2.777-9.09 3.432-13.595 1.627-20.397-8.172-40.101-20.963-57.334-38.196s-30.025-36.937-38.196-57.334c-1.805-4.505-1.15-9.615 1.627-13.595 6.136-8.794 13.019-17.326 20.634-25.488 10.302 23.693 25.605 46.499 45.729 66.623 20.125 20.124 42.93 35.426 66.623 45.729z" fill="#fff68e"/><path d="m368.425 192.34c21.479 21.479 25.348 52.434 8.642 69.139s-47.66 12.836-69.139-8.642c-21.479-21.479-25.348-52.434-8.642-69.139 16.706-16.707 47.66-12.837 69.139 8.642zm-55.906-61.074c0 13.817-11.201 25.018-25.018 25.018s-25.018-11.201-25.018-25.018 11.201-25.018 25.018-25.018 25.018 11.201 25.018 25.018zm-49.978-52.448c8.868 0 16.057-7.189 16.057-16.057s-7.189-16.057-16.057-16.057-16.057 7.189-16.057 16.057c-.001 8.868 7.189 16.057 16.057 16.057z" fill="#fffac1"/><path d="m349.595 201.02c6.423-1.706 15.723 9.784 19.092 19.799 3.028 8.999 3.755 24.206-5.303 30.052-4.275 2.759-10.869 3.524-15.556.707-14.043-8.44-8.817-47.746 1.767-50.558zm-75.574-133.682c-8.868 0-16.057-7.189-16.057-16.057 0-1.402.18-2.763.518-4.059 1.297-.338 2.657-.518 4.059-.518 8.868 0 16.057 7.189 16.057 16.057 0 1.402-.18 2.763-.518 4.059-1.296.338-2.657.518-4.059.518zm13.48 38.911c-3.946 0-7.678.914-10.997 2.541-1.627 3.319-2.541 7.051-2.541 10.997 0 13.817 11.201 25.018 25.018 25.018 3.946 0 7.678-.914 10.997-2.541 1.627-3.319 2.541-7.051 2.541-10.997 0-13.818-11.201-25.018-25.018-25.018z" fill="#fff5f5"/></g></svg>