<svg id="Icons" height="512" viewBox="0 0 512 512" width="512" xmlns="http://www.w3.org/2000/svg"><circle cx="256" cy="256" fill="#e52e44" r="256"/><circle cx="256" cy="256" fill="#fa4654" r="208.88"/><path d="m192.28 427.86-48.6.24a5.06 5.06 0 0 1 -4.91-6.31l2.9-11.2 24.5.32 24.16 3.83a6.91 6.91 0 0 1 .79.16 8.25 8.25 0 0 1 6.17 7.77 5 5 0 0 1 -5.01 5.19z" fill="#334353"/><path d="m192.28 427.86-48.6.24a5.06 5.06 0 0 1 -4.91-6.31l58.52.88a5 5 0 0 1 -5.01 5.19z" fill="#3e4e60"/><path d="m171 300.8-73.26-.27-.43 115.54 10.4.14 14.1.18 9.2-85.6c0-.19.06-.38.1-.57a5.1 5.1 0 0 1 .38-1.08c1.94-3.92 8-2.35 8.07 2l2.13 79.45 24.5.32z" fill="#22bce0"/><path d="m171 300.8-62.87-.23-.42 115.64 14.1.18 10.09-92.76a9.43 9.43 0 0 1 9.3-8.41 9.43 9.43 0 0 1 9.49 9.26l1.54 86.25 14 .18z" fill="#83d5ef"/><path d="m147.9 433.35-48.61.23a5 5 0 0 1 -4.9-6.3l2.9-11.21 24.5.32 24.15 3.84a7.08 7.08 0 0 1 .8.16 8.24 8.24 0 0 1 6.16 7.76 5 5 0 0 1 -5 5.2z" fill="#334353"/><path d="m147.9 433.35-48.61.23a5 5 0 0 1 -4.9-6.3l58.51.87a5 5 0 0 1 -5 5.2z" fill="#3e4e60"/><path d="m151.52 197.37a13.9 13.9 0 0 1 17.72 13l.8 30.1a29.24 29.24 0 0 0 7.7 19l15.89 17.29-13.73 22.09-27.73-25.73a32.44 32.44 0 0 1 -10.17-20.43l-3.55-34.44a18.45 18.45 0 0 1 13.07-20.88z" fill="#14a36d"/><path d="m193.63 276.76 13.6 8.39a9.25 9.25 0 0 1 4 10.53l-.9 3a22.78 22.78 0 0 1 -12.77 14.37 10.37 10.37 0 0 1 -13.56-5.18l-4.11-9z" fill="#fbb3a5"/><path d="m171.31 213-.31 87.81-73.26-.28.33-87.77a20.59 20.59 0 0 1 20.67-20.53l32.07.12a20.6 20.6 0 0 1 20.5 20.65z" fill="#15be79"/><path d="m121.53 206a13.89 13.89 0 0 1 -3.91 21.62l-26.71 13.9a11.1 11.1 0 0 0 -4.79 14.84l11.68 23.17-23.39 10.86-15.54-34.3a25.56 25.56 0 0 1 8.34-31.27l29.79-21.49a18.45 18.45 0 0 1 24.53 2.67z" fill="#14a36d"/><path d="m97.8 279.53-.06 13.81a16 16 0 0 1 -14.55 15.92l-9.08.84a5.53 5.53 0 0 1 -6-4.82l-.25-2a5.51 5.51 0 0 1 4.37-6.09 4 4 0 0 0 2.64-6l-.47-.8z" fill="#fdc8bb"/><path d="m161.09 99h-52.33a18.72 18.72 0 0 0 -18.76 18.68v63.57a4.4 4.4 0 0 0 6.12 4.06c6.15-2.66 17.82-5.76 38.77-5.76s32.61 3.1 38.76 5.76a4.4 4.4 0 0 0 6.12-4.07v-63.56a18.72 18.72 0 0 0 -18.68-18.68z" fill="#334353"/><path d="m146.76 184.49v7.85a12 12 0 0 1 -12 11.93 12 12 0 0 1 -11.93-12v-7.85z" fill="#fdc8bb"/><path d="m146.76 184.49v6.78a17.29 17.29 0 0 1 -5.55 3.49 17.48 17.48 0 0 1 -18.41-3.58v-6.78z" fill="#f78c87"/><path d="m171.64 126-.1 26.06a24.82 24.82 0 0 1 -8.75 18.81l-16 13.63a17 17 0 0 1 -4.7 3.12l-.86.37a17.54 17.54 0 0 1 -18.41-3.58l-15.93-13.75a24.82 24.82 0 0 1 -8.59-18.88l.1-26.05a17.44 17.44 0 0 1 17.5-17.39l38.38.15a17.45 17.45 0 0 1 17.36 17.51z" fill="#fbb3a5"/><path d="m171.64 126-.1 26.06a24.82 24.82 0 0 1 -8.75 18.81l-16 13.63a17 17 0 0 1 -4.7 3.12 17.22 17.22 0 0 1 -4.67-3.15l-15.96-13.77a24.77 24.77 0 0 1 -8.59-18.87l.09-26.06a17.45 17.45 0 0 1 17.51-17.38l23.78.09a17.45 17.45 0 0 1 17.39 17.52z" fill="#fdc8bb"/><path d="m171.56 137.37h.9a7.35 7.35 0 0 1 7.35 7.35 7.35 7.35 0 0 1 -7.35 7.35h-.9a0 0 0 0 1 0 0v-14.7a0 0 0 0 1 0 0z" fill="#fdc8bb" transform="matrix(1 .004 -.004 1 .54 -.66)"/><path d="m90 137.07h.9a7.35 7.35 0 0 1 7.35 7.35 7.35 7.35 0 0 1 -7.35 7.35h-.9a0 0 0 0 1 0 0v-14.7a0 0 0 0 1 0 0z" fill="#fbb3a5" transform="matrix(-1 -.004 .004 -1 187.8 289.18)"/><rect fill="#fbb3a5" height="5.84" rx="2.92" transform="matrix(1 .004 -.004 1 .58 -.5)" width="12.12" x="128.83" y="151.91"/><g fill="#2d2c33"><ellipse cx="151.9" cy="148.36" rx="5.03" ry="3.84" transform="matrix(.004 -1 1 .004 2.97 299.71)"/><ellipse cx="117.98" cy="148.24" rx="5.03" ry="3.84" transform="matrix(.004 -1 1 .004 -30.7 265.66)"/><path d="m158.94 146.84a1.57 1.57 0 0 1 -.81-.22 12.7 12.7 0 0 0 -12.52-.06 1.67 1.67 0 1 1 -1.61-2.93 15.9 15.9 0 0 1 15.76.08 1.67 1.67 0 0 1 -.82 3.13z"/><path d="m125 146.71a1.72 1.72 0 0 1 -.81-.21 12.65 12.65 0 0 0 -12.52-.06 1.68 1.68 0 0 1 -1.61-2.94 16 16 0 0 1 15.77.08 1.67 1.67 0 0 1 -.83 3.13z"/></g><path d="m142.57 134.63a1.51 1.51 0 0 1 .59.11 25.2 25.2 0 0 0 17.7 0 1.67 1.67 0 0 1 1.19 3.13 28.53 28.53 0 0 1 -20.08 0 1.67 1.67 0 0 1 .6-3.24z" fill="#334353"/><path d="m108.45 134.5a1.81 1.81 0 0 1 .6.11 25.2 25.2 0 0 0 17.7 0 1.67 1.67 0 0 1 1.19 3.13 28.53 28.53 0 0 1 -20.08 0 1.67 1.67 0 0 1 .59-3.24z" fill="#334353"/><path d="m144.54 170.09a1.71 1.71 0 0 1 -.54-.09 25.2 25.2 0 0 0 -17.7 0 1.67 1.67 0 1 1 -1.18-3.13 28.53 28.53 0 0 1 20.08 0 1.68 1.68 0 0 1 -.61 3.24z" fill="#f78c87"/><path d="m109.87 104.53h50.13a13.6 13.6 0 0 1 13.6 13.6v2.57a8.81 8.81 0 0 1 -8.81 8.81h-59.7a8.81 8.81 0 0 1 -8.81-8.81v-2.57a13.6 13.6 0 0 1 13.59-13.6z" fill="#3e4e60"/><path d="m319.72 427.86 48.6.24a5.06 5.06 0 0 0 4.91-6.31l-2.9-11.2-24.5.32-24.16 3.83a6.91 6.91 0 0 0 -.79.16 8.25 8.25 0 0 0 -6.17 7.77 5 5 0 0 0 5.01 5.19z" fill="#334353"/><path d="m319.72 427.86 48.6.24a5.06 5.06 0 0 0 4.91-6.31l-58.52.88a5 5 0 0 0 5.01 5.19z" fill="#3e4e60"/><path d="m341 300.8 73.26-.27.43 115.54-10.4.14-14.1.18-9.2-85.6c0-.19-.06-.38-.1-.57a5.1 5.1 0 0 0 -.38-1.08c-1.94-3.92-8-2.35-8.07 2l-2.13 79.45-24.5.32z" fill="#8d00af"/><path d="m341 300.8 62.87-.23.42 115.64-14.1.18-10.09-92.76a9.43 9.43 0 0 0 -9.3-8.41 9.43 9.43 0 0 0 -9.49 9.26l-1.54 86.25-14 .18z" fill="#aa0dd1"/><path d="m364.1 433.35 48.61.23a5 5 0 0 0 4.9-6.3l-2.9-11.21-24.5.32-24.15 3.84a7.08 7.08 0 0 0 -.8.16 8.24 8.24 0 0 0 -6.16 7.76 5 5 0 0 0 5 5.2z" fill="#334353"/><path d="m364.1 433.35 48.61.23a5 5 0 0 0 4.9-6.3l-58.51.87a5 5 0 0 0 5 5.2z" fill="#3e4e60"/><path d="m360.48 197.37a13.9 13.9 0 0 0 -17.72 13l-.8 30.1a29.24 29.24 0 0 1 -7.7 19l-15.89 17.29 13.73 22.09 27.73-25.73a32.44 32.44 0 0 0 10.17-20.43l3.55-34.44a18.45 18.45 0 0 0 -13.07-20.88z" fill="#4fcae8"/><path d="m318.37 276.76-13.6 8.39a9.25 9.25 0 0 0 -4 10.53l.9 3a22.78 22.78 0 0 0 12.77 14.37 10.37 10.37 0 0 0 13.56-5.18l4.11-9z" fill="#995444"/><path d="m340.69 213 .33 87.78 73.26-.28-.28-87.74a20.59 20.59 0 0 0 -20.67-20.53l-32.07.12a20.6 20.6 0 0 0 -20.57 20.65z" fill="#83d5ef"/><path d="m390.47 206a13.89 13.89 0 0 0 3.91 21.62l26.71 13.9a11.1 11.1 0 0 1 4.79 14.84l-11.68 23.17 23.39 10.86 15.54-34.3a25.56 25.56 0 0 0 -8.34-31.27l-29.79-21.49a18.45 18.45 0 0 0 -24.53 2.67z" fill="#4fcae8"/><path d="m414.2 279.53.06 13.81a16 16 0 0 0 14.55 15.92l9.08.84a5.53 5.53 0 0 0 6-4.82l.25-2a5.51 5.51 0 0 0 -4.37-6.09 4 4 0 0 1 -2.64-6l.47-.8z" fill="#995444"/><path d="m365.24 184.49v7.85a12 12 0 0 0 12 11.93 12 12 0 0 0 11.93-12v-7.85z" fill="#995444"/><path d="m365.24 184.49v6.78a17.29 17.29 0 0 0 5.55 3.49 17.48 17.48 0 0 0 18.41-3.58v-6.78z" fill="#6d413c"/><path d="m340.36 126 .1 26.06a24.82 24.82 0 0 0 8.75 18.81l16 13.63a17 17 0 0 0 4.7 3.12l.86.37a17.54 17.54 0 0 0 18.41-3.58l15.93-13.75a24.82 24.82 0 0 0 8.59-18.88l-.1-26.05a17.44 17.44 0 0 0 -17.5-17.39l-38.38.15a17.45 17.45 0 0 0 -17.36 17.51z" fill="#774742"/><path d="m340.36 126 .1 26.06a24.82 24.82 0 0 0 8.75 18.81l16 13.63a17 17 0 0 0 4.7 3.12 17.22 17.22 0 0 0 4.67-3.15l15.93-13.76a24.77 24.77 0 0 0 8.59-18.87l-.1-26.07a17.45 17.45 0 0 0 -17.51-17.38l-23.78.09a17.45 17.45 0 0 0 -17.35 17.52z" fill="#995444"/><path d="m332.19 137.37h.9a7.35 7.35 0 0 1 7.35 7.35 7.35 7.35 0 0 1 -7.35 7.35h-.9a0 0 0 0 1 0 0v-14.7a0 0 0 0 1 0 0z" fill="#995444" transform="matrix(-1 .004 -.004 -1 673.17 288.18)"/><path d="m413.71 137.07h.9a7.35 7.35 0 0 1 7.35 7.35 7.35 7.35 0 0 1 -7.35 7.35h-.9a0 0 0 0 1 0 0v-14.7a0 0 0 0 1 0 0z" fill="#774742" transform="matrix(1 -.004 .004 1 -.54 1.57)"/><rect fill="#774742" height="5.84" rx="2.92" transform="matrix(-1 .004 -.004 -1 754.8 308.25)" width="12.12" x="371.05" y="151.91"/><ellipse cx="359.55" cy="149.71" fill="#3d2322" rx="3.84" ry="5.03"/><ellipse cx="394.02" cy="148.24" fill="#3d2322" rx="3.84" ry="5.03" transform="matrix(1 -.004 .004 1 -.55 1.48)"/><path d="m353.06 146.84a1.57 1.57 0 0 0 .81-.22 12.7 12.7 0 0 1 12.52-.06 1.67 1.67 0 1 0 1.61-2.93 15.9 15.9 0 0 0 -15.76.08 1.67 1.67 0 0 0 .82 3.13z" fill="#3d2322"/><path d="m387 146.71a1.72 1.72 0 0 0 .81-.21 12.65 12.65 0 0 1 12.52-.06 1.68 1.68 0 0 0 1.61-2.94 16 16 0 0 0 -15.77.08 1.67 1.67 0 0 0 .83 3.13z" fill="#3d2322"/><path d="m369.55 134.68a1.81 1.81 0 0 0 -.6.11 25.2 25.2 0 0 1 -17.7 0 1.67 1.67 0 1 0 -1.19 3.13 28.53 28.53 0 0 0 20.08 0 1.67 1.67 0 0 0 -.59-3.24z" fill="#512f2d"/><path d="m403.44 134.55a1.71 1.71 0 0 0 -.59.11 25.2 25.2 0 0 1 -17.7 0 1.67 1.67 0 1 0 -1.15 3.14 28.53 28.53 0 0 0 20.08 0 1.67 1.67 0 0 0 -.6-3.24z" fill="#512f2d"/><path d="m367.46 170.09a1.71 1.71 0 0 0 .59-.11 25.2 25.2 0 0 1 17.7 0 1.67 1.67 0 1 0 1.18-3.13 28.53 28.53 0 0 0 -20.08 0 1.68 1.68 0 0 0 .61 3.24z" fill="#6d413c"/><path d="m312.27 234.52-19.73-11.39a3.5 3.5 0 0 0 -5.25 3v7.89h-62.58v-7.89a3.5 3.5 0 0 0 -5.25-3l-19.73 11.39a3.5 3.5 0 0 0 0 6.06l19.73 11.42a3.5 3.5 0 0 0 5.25-3v-7.89h62.58v7.89a3.5 3.5 0 0 0 5.25 3l19.73-11.39a3.5 3.5 0 0 0 0-6.09z" fill="#ff9fb4"/><path d="m189.38 187.46a5.29 5.29 0 0 1 0-5.63 5.12 5.12 0 0 1 2.31-1.85l26-11.06a4.08 4.08 0 0 1 4.09.52 3 3 0 0 1 -.8 4.86l-24.71 10.36 24.73 10.34a3 3 0 0 1 .8 4.87 3.91 3.91 0 0 1 -4.09.52l-26-11.13a4.7 4.7 0 0 1 -2.33-1.8z" fill="#f4e6f4"/><path d="m267.68 201q0 3.7-4.2 3.71h-26.6a3.79 3.79 0 0 1 -2.87-1.09c-1.41-1.44-1.42-4.36.56-6.47l16-17.15a27.6 27.6 0 0 0 4.3-5.92c1.34-2.58 2.36-7.68-.52-10.39-2.39-2.15-7.05-2.18-10.95-.67a28.16 28.16 0 0 0 -5.43 3 8.33 8.33 0 0 1 -1.4.8 3 3 0 0 1 -3.46-.8 4.17 4.17 0 0 1 .73-6 24.42 24.42 0 0 1 7.21-3.89c5.6-2.12 15.07-2.09 19.77 2.21 4.94 3.93 5.36 11.82 2.49 17.81a35.47 35.47 0 0 1 -6.16 8.37l-12.15 12.9h18.48q4.2 0 4.2 3.58z" fill="#f4e6f4"/><path d="m324.48 173q3 3.33 3 10.75v17.22a3.92 3.92 0 0 1 -1.23 3.11 5.28 5.28 0 0 1 -6.3 0 4 4 0 0 1 -1.22-3.11v-17.27q0-3.85-1.37-5.5c-1.92-2.39-7.34-2.06-9.62.7a9.44 9.44 0 0 0 -2 6.41v15.61a3.92 3.92 0 0 1 -1.23 3.11c-2 1.88-7.61 1.37-7.52-3.11v-17.22q0-3.85-1.37-5.5c-1.91-2.39-7.34-2.07-9.59.7a9.59 9.59 0 0 0 -2 6.41v15.61a3.88 3.88 0 0 1 -1.26 3.11 5.22 5.22 0 0 1 -6.27 0 4 4 0 0 1 -1.22-3.11v-27.09a3.69 3.69 0 0 1 1.26-3 5.22 5.22 0 0 1 6.12 0 3.68 3.68 0 0 1 1.16 2.91v1.68a11 11 0 0 1 4.3-4.27c5.1-2.93 14.49-1.47 16.49 5a11.52 11.52 0 0 1 4.55-4.69c3.84-2.54 12-2.58 15.32 1.54z" fill="#f4e6f4"/></svg>