<?xml version="1.0" encoding="iso-8859-1"?>
<!-- Generator: Adobe Illustrator 19.0.0, SVG Export Plug-In . SVG Version: 6.00 Build 0)  -->
<svg version="1.1" id="Capa_1" xmlns="http://www.w3.org/2000/svg" xmlns:xlink="http://www.w3.org/1999/xlink" x="0px" y="0px"
	 viewBox="0 0 491.52 491.52" style="enable-background:new 0 0 491.52 491.52;" xml:space="preserve">
<circle style="fill:#E05B49;" cx="245.76" cy="245.76" r="245.76"/>
<path style="opacity:0.1;enable-background:new    ;" d="M478.281,325.315l-128.549-128.55l-0.018,0.028
	c-2.748-2.73-5.836-5.16-9.387-7.059c-1.451-0.805-2.994-1.5-4.588-2.134c-0.266-0.104-0.547-0.191-0.818-0.291
	c-0.066-0.025-0.14-0.039-0.206-0.063l-82.299-82.299l-30.31,3.123l1.843,18.227c3.277,32.154,17.51,61.542,40.346,83.969
	c3.379,3.328,5.376,7.783,5.734,12.544c1.28,17.869,0.256,53.76-25.242,72.192c-8.755,6.298-19.712,8.756-30.413,7.68
	c-6.246-0.666-13.978-1.28-20.019-1.126c-6.451,0.153-12.851-1.536-18.381-4.916l-7.014-4.351l-1.075-0.615
	c-10.086-5.274-21.965-4.864-31.693,1.075c-9.882,6.042-15.411,17.204-15.411,28.724v65.075l104.022,104.023
	c6.915,0.584,13.891,0.951,20.957,0.951C353.636,491.52,445.211,421.984,478.281,325.315z"/>
<path style="fill:#FCD462;" d="M299.957,187.554c-7.511,2.165-15.706,0.009-20.781-5.938
	c-13.979-16.376-22.675-36.585-24.903-58.427l-1.856-18.229l-30.307,3.086l1.855,18.229c3.279,32.174,17.493,61.573,40.33,83.976
	c3.394,3.33,5.372,7.811,5.715,12.552c1.294,17.89,0.291,53.747-25.212,72.191c-8.746,6.325-19.707,8.764-30.445,7.663
	c-6.222-0.637-13.941-1.236-19.977-1.097c-6.49,0.151-12.879-1.527-18.401-4.939l-6.996-4.324l-1.071-0.61
	c-10.106-5.285-21.98-4.89-31.729,1.07c-9.85,6.023-15.391,17.179-15.391,28.724v65.078h34.271v-47.935
	c0-1.827,0.572-3.451,1.517-4.76c3.124-4.327,9.798-3.735,12.774,0.695c9.928,14.779,49.445,62.979,128.356,36.138
	c0,0,69.872-27.067,73.019-115.194C370.729,255.504,369.572,167.489,299.957,187.554z"/>
<path style="fill:#F6C358;" d="M330.16,185.863c-1.838,34.464-15.019,173.986-107.918,188.236c19.455,6.08,44.394,7.169,75.468-3.4
	c0,0,69.871-27.067,73.019-115.195C370.729,255.504,369.895,195.274,330.16,185.863z"/>
<g>
</g>
<g>
</g>
<g>
</g>
<g>
</g>
<g>
</g>
<g>
</g>
<g>
</g>
<g>
</g>
<g>
</g>
<g>
</g>
<g>
</g>
<g>
</g>
<g>
</g>
<g>
</g>
<g>
</g>
</svg>
